HIERARCHY
ROOT Hips
{
	OFFSET -14.64140 90.27770 -84.91600
	CHANNELS 6 Xposition Yposition Zposition Zrotation Xrotation Yrotation
	JOINT Spine
	{
		OFFSET 0.00000 13.20850 -1.60436
		CHANNELS 3 Zrotation Xrotation Yrotation
		JOINT Spine1
		{
			OFFSET 0.00000 8.61716 0.00000
			CHANNELS 3 Zrotation Xrotation Yrotation
			JOINT Spine2
			{
				OFFSET 0.00000 8.61717 0.00000
				CHANNELS 3 Zrotation Xrotation Yrotation
				JOINT Spine3
				{
					OFFSET 0.00000 8.61717 0.00000
					CHANNELS 3 Zrotation Xrotation Yrotation
					JOINT Neck
					{
						OFFSET 0.00000 11.07920 1.10792
						CHANNELS 3 Zrotation Xrotation Yrotation
						JOINT Neck1
						{
							OFFSET 0.00000 7.08032 0.00000
							CHANNELS 3 Zrotation Xrotation Yrotation
							JOINT Head
							{
								OFFSET 0.00000 7.08031 0.00000
								CHANNELS 3 Zrotation Xrotation Yrotation
								End site
								{
									OFFSET 0.00000 0.00000 0.00000
								}
							}
						}
					}
					JOINT RightShoulder
					{
						OFFSET -0.01000 7.91373 5.19711
						CHANNELS 3 Zrotation Xrotation Yrotation
						JOINT RightArm
						{
							OFFSET -18.41580 0.00000 0.00000
							CHANNELS 3 Zrotation Xrotation Yrotation
							JOINT RightForeArm
							{
								OFFSET -29.11090 0.00000 0.00000
								CHANNELS 3 Zrotation Xrotation Yrotation
								JOINT RightHand
								{
									OFFSET -24.65040 0.00000 0.00000
									CHANNELS 3 Zrotation Xrotation Yrotation
									JOINT RightHandThumb1
									{
										OFFSET -5.35114 -0.85590 3.97906
										CHANNELS 3 Zrotation Xrotation Yrotation
										JOINT RightHandThumb2
										{
											OFFSET -4.52789 0.00000 0.00000
											CHANNELS 3 Zrotation Xrotation Yrotation
											JOINT RightHandThumb3
											{
												OFFSET -2.46976 0.00000 0.00000
												CHANNELS 3 Zrotation Xrotation Yrotation
												End site
												{
													OFFSET 0.00000 0.00000 0.00000
												}
											}
										}
									}
									JOINT RightHandIndex1
									{
										OFFSET -14.26970 0.00000 2.88139
										CHANNELS 3 Zrotation Xrotation Yrotation
										JOINT RightHandIndex2
										{
											OFFSET -5.48836 0.00000 0.00000
											CHANNELS 3 Zrotation Xrotation Yrotation
											JOINT RightHandIndex3
											{
												OFFSET -3.01859 0.00000 0.00000
												CHANNELS 3 Zrotation Xrotation Yrotation
												End site
												{
													OFFSET 0.00000 0.00000 0.00000
												}
											}
										}
									}
									JOINT RightHandMiddle1
									{
										OFFSET -14.26970 0.00000 -0.09147
										CHANNELS 3 Zrotation Xrotation Yrotation
										JOINT RightHandMiddle2
										{
											OFFSET -6.17441 0.00000 0.00000
											CHANNELS 3 Zrotation Xrotation Yrotation
											JOINT RightHandMiddle3
											{
												OFFSET -3.56743 0.00000 0.00000
												CHANNELS 3 Zrotation Xrotation Yrotation
												End site
												{
													OFFSET 0.00000 0.00000 0.00000
												}
											}
										}
									}
									JOINT RightHandRing1
									{
										OFFSET -12.69180 0.00000 -3.06433
										CHANNELS 3 Zrotation Xrotation Yrotation
										JOINT RightHandRing2
										{
											OFFSET -5.62556 0.00000 0.00000
											CHANNELS 3 Zrotation Xrotation Yrotation
											JOINT RightHandRing3
											{
												OFFSET -3.56744 0.00000 0.00000
												CHANNELS 3 Zrotation Xrotation Yrotation
												End site
												{
													OFFSET 0.00000 0.00000 0.00000
												}
											}
										}
									}
									JOINT RightHandPinky1
									{
										OFFSET -11.11390 0.00000 -6.03719
										CHANNELS 3 Zrotation Xrotation Yrotation
										JOINT RightHandPinky2
										{
											OFFSET -4.52789 0.00000 0.00000
											CHANNELS 3 Zrotation Xrotation Yrotation
											JOINT RightHandPinky3
											{
												OFFSET -2.46976 0.00000 0.00000
												CHANNELS 3 Zrotation Xrotation Yrotation
												End site
												{
													OFFSET 0.00000 0.00000 0.00000
												}
											}
										}
									}
								}
							}
						}
					}
					JOINT LeftShoulder
					{
						OFFSET 0.01000 7.91373 5.19711
						CHANNELS 3 Zrotation Xrotation Yrotation
						JOINT LeftArm
						{
							OFFSET 18.41580 0.00000 0.00000
							CHANNELS 3 Zrotation Xrotation Yrotation
							JOINT LeftForeArm
							{
								OFFSET 29.11090 0.00000 0.00000
								CHANNELS 3 Zrotation Xrotation Yrotation
								JOINT LeftHand
								{
									OFFSET 24.65040 0.00000 0.00000
									CHANNELS 3 Zrotation Xrotation Yrotation
									JOINT LeftHandThumb1
									{
										OFFSET 5.35114 -0.85590 3.97906
										CHANNELS 3 Zrotation Xrotation Yrotation
										JOINT LeftHandThumb2
										{
											OFFSET 4.52789 0.00000 0.00000
											CHANNELS 3 Zrotation Xrotation Yrotation
											JOINT LeftHandThumb3
											{
												OFFSET 2.46977 0.00000 0.00000
												CHANNELS 3 Zrotation Xrotation Yrotation
												End site
												{
													OFFSET 0.00000 0.00000 0.00000
												}
											}
										}
									}
									JOINT LeftHandIndex1
									{
										OFFSET 14.26970 0.00000 2.88139
										CHANNELS 3 Zrotation Xrotation Yrotation
										JOINT LeftHandIndex2
										{
											OFFSET 5.48836 0.00000 0.00000
											CHANNELS 3 Zrotation Xrotation Yrotation
											JOINT LeftHandIndex3
											{
												OFFSET 3.01859 0.00000 0.00000
												CHANNELS 3 Zrotation Xrotation Yrotation
												End site
												{
													OFFSET 0.00000 0.00000 0.00000
												}
											}
										}
									}
									JOINT LeftHandMiddle1
									{
										OFFSET 14.26970 0.00000 -0.09147
										CHANNELS 3 Zrotation Xrotation Yrotation
										JOINT LeftHandMiddle2
										{
											OFFSET 6.17440 0.00000 0.00000
											CHANNELS 3 Zrotation Xrotation Yrotation
											JOINT LeftHandMiddle3
											{
												OFFSET 3.56744 0.00000 0.00000
												CHANNELS 3 Zrotation Xrotation Yrotation
												End site
												{
													OFFSET 0.00000 0.00000 0.00000
												}
											}
										}
									}
									JOINT LeftHandRing1
									{
										OFFSET 12.69180 0.00000 -3.06433
										CHANNELS 3 Zrotation Xrotation Yrotation
										JOINT LeftHandRing2
										{
											OFFSET 5.62556 0.00000 0.00000
											CHANNELS 3 Zrotation Xrotation Yrotation
											JOINT LeftHandRing3
											{
												OFFSET 3.56744 0.00000 0.00000
												CHANNELS 3 Zrotation Xrotation Yrotation
												End site
												{
													OFFSET 0.00000 0.00000 0.00000
												}
											}
										}
									}
									JOINT LeftHandPinky1
									{
										OFFSET 11.11390 0.00000 -6.03719
										CHANNELS 3 Zrotation Xrotation Yrotation
										JOINT LeftHandPinky2
										{
											OFFSET 4.52789 0.00000 0.00000
											CHANNELS 3 Zrotation Xrotation Yrotation
											JOINT LeftHandPinky3
											{
												OFFSET 2.46976 0.00000 0.00000
												CHANNELS 3 Zrotation Xrotation Yrotation
												End site
												{
													OFFSET 0.00000 0.00000 0.00000
												}
											}
										}
									}
								}
							}
						}
					}
					JOINT pCube4
					{
						OFFSET 0.00000 10.91090 1.10792
						CHANNELS 3 Zrotation Xrotation Yrotation
						End site
						{
							OFFSET 0.00000 0.00000 0.00000
						}
					}
				}
			}
		}
	}
	JOINT RightUpLeg
	{
		OFFSET -9.98441 0.00000 0.00000
		CHANNELS 3 Zrotation Xrotation Yrotation
		JOINT RightLeg
		{
			OFFSET 0.00000 -42.11790 0.00000
			CHANNELS 3 Zrotation Xrotation Yrotation
			JOINT RightFoot
			{
				OFFSET 0.00000 -45.00020 -0.00001
				CHANNELS 3 Zrotation Xrotation Yrotation
				JOINT RightForeFoot
				{
					OFFSET 0.00000 -3.74820 0.00000
					CHANNELS 3 Zrotation Xrotation Yrotation
					JOINT RightToeBase
					{
						OFFSET 0.00000 0.06325 14.43120
						CHANNELS 3 Zrotation Xrotation Yrotation
						End site
						{
							OFFSET 0.00000 0.00000 0.00000
						}
					}
				}
			}
		}
	}
	JOINT LeftUpLeg
	{
		OFFSET 9.98441 0.00000 0.00000
		CHANNELS 3 Zrotation Xrotation Yrotation
		JOINT LeftLeg
		{
			OFFSET 0.00000 -42.11800 0.00000
			CHANNELS 3 Zrotation Xrotation Yrotation
			JOINT LeftFoot
			{
				OFFSET 0.00000 -45.00070 0.00000
				CHANNELS 3 Zrotation Xrotation Yrotation
				JOINT LeftForeFoot
				{
					OFFSET 0.00000 -3.74824 0.00000
					CHANNELS 3 Zrotation Xrotation Yrotation
					JOINT LeftToeBase
					{
						OFFSET 0.00000 0.06325 14.43110
						CHANNELS 3 Zrotation Xrotation Yrotation
						End site
						{
							OFFSET 0.00000 0.00000 0.00000
						}
					}
				}
			}
		}
	}
}
MOTION
Frames: 4
Frame Time: 0.050000
0.01777985456987454 0.027387562046365155 -0.021699557153290527 0.0313379104448348 -0.02664572242250593 -0.025803010848992905 -2.189729367108418 0.21854397986285612 -0.9005804684528225 -0.9947069978803612 3.6982908272846395 0.3381803497063186 -1.1341173739029102 -1.8766967334726585 -1.3795619091762141 0.08004821502361693 0.3874425171566093 -0.8464254713935913 -0.12610970121150056 12.845374542858798 0.8317692092366366 0.5035589040864303 0.585257300308039 1.1540106671542725 0.3670437105288646 -13.855578788412702 0.11382458587103855 -3.6186737062134493 1.4081801820440767 -15.706052671175009 73.4346772307704 15.930600653106813 -0.6579477195130858 -3.6774401560706558 7.3840849560498505 42.50914891583373 22.76484315524951 -0.03516670782086713 -4.952019596468162 4.5377238952533006 -0.09586328726494965 -1.60385784813046 -0.025839718716061135 -0.023423249866216134 -56.24794997601478 -0.024762662555080507 -0.010844556836069668 -56.252847713957564 -38.79183590439363 0.016616984061853787 -0.02308591717642481 0.021348142551313395 0.035616700894919126 -0.0294038446213541 -0.0014781335739591354 -0.049831403108003436 0.043830723402254836 -36.68881449146132 -0.025941509735919962 -0.0009147334300856105 0.041730472831447415 0.014931588196827775 0.04146003234938473 -0.03258162303662068 -0.005337448672602618 0.00654998719874502 -19.797986777929015 0.02973330432688008 0.0165602256333403 -0.023402488139885953 0.017733857771606534 0.044302946494819584 0.036321634578702834 0.01445406611658667 0.010537421537651264 24.03777849319716 0.019098319952492927 0.03543205142996711 28.899617439255614 -0.03598942173147744 0.022795199684523624 28.892331878555204 -0.04771746363521766 -0.04217332724050754 5.509015611136761 1.3675303224671371 13.803266254447589 -71.14216979063877 29.476420417723016 -6.983320805788892 -7.065226289381129 -7.722713901845871 -89.20551646284152 -9.846687944730768 -5.89060407121042 3.8284054462543797 -0.4422585714099099 0.0834984383413939 -8.097156930373599 0.024212908508870857 -0.015724036618149334 44.55603216526486 0.005404878357241347 0.01710841152446076 44.57446953790352 12.482167101580457 -0.029711786465732158 0.002028439379786088 0.01579998146699972 0.015298022440559665 -0.03108521470429705 -0.016216535494901315 0.04967922435757749 0.012612881956355529 11.109997792438836 0.03912411860419396 0.028117257890642858 -0.03844880284660709 -0.037727814634635405 0.028246848255429058 -0.006108613292432072 0.04638605434510915 0.029698919556062915 4.8184649985729875 -0.010095409075272493 0.017821675166708108 0.026156606234371837 0.023713799981343063 -0.003812849666877204 -0.006978034388543893 0.0025548333752296987 0.028421454974644475 -5.649488428563859 0.013315022310216123 -0.0021556442311118436 -6.746418598199926 0.048454539377270386 0.00378989880988452 -6.760314172602526 -0.01916700877050751 0.03889697314073788 0.008605791621480436 -0.027834985482169994 0.03682843459987394 8.065036553935578 3.529886134175678 -19.26089350934185 0.023205166497006602 10.350974155728078 -0.013401360532035774 -5.602281967039255 -15.616782117630805 3.226344582649531 -0.021694615533087092 0.00505638210661346 0.0010799220123729422 -0.043751515534735025 4.655557121677694 -0.0155656084170848 12.454586949650086 -8.22308127020608 6.908020607700278 -0.04603986683956339 46.34414810094499 -0.003113588731119909 -4.277258958507383 -14.738175515724993 -3.8265014402512865 0.020901817289325966 -0.0156815293365546 0.008998036996790497 -0.021127807558630717 -10.703459824518122 -0.0432217119052797 
0.031017398792507114 0.028573263571869678 0.030391099814572733 0.011553712655610959 -0.016456032011491425 -0.0004630749980750146 -2.298563219557151 0.17690919636714147 -0.8132230383438763 -1.0236934272111728 3.7104819282466304 0.32566556044118344 -1.1806895336331946 -1.9543964490796661 -1.4117102325958424 0.018026469857334467 0.3759253557217083 -0.8834304990967526 -0.21892791144289964 13.032241700480734 1.0424658598453356 0.5364490453660352 0.6493607696673915 1.8550483859216107 0.2969328101979627 -13.73042478009337 0.15065719531294874 -3.782361131487339 1.3969618895135052 -15.656231650412245 73.27754985672537 15.228196332275852 -0.8937511941534524 -3.3057396659873763 7.424648250514814 42.377290613702854 22.92090391120364 -0.057995071120174296 -4.824067661687467 4.498364122646765 -0.10252819184836698 -1.6215501072336802 0.018075075230241384 -0.002469164639761303 -56.21944044378872 0.014987699596768923 0.04963074180215321 -56.19162128722269 -38.80861021256321 0.04264260859186985 0.013983615041994335 0.025508822643626482 -0.016816595890658717 -0.02805436041458894 -0.008338232179816166 0.01929059251996992 -0.028077120000730166 -36.66849995701719 0.042459676098817616 -0.0023332312479287347 0.0019531222390762636 0.0003127073272456111 0.018127478620994605 -0.014775256529881696 -0.04384605455001262 0.0013417605853444418 -19.7336777343303 -0.04146467457228688 0.04616615705133024 -0.01604442253848154 -0.01905313806641743 -0.02659479894626823 0.009418826722266741 -0.018889127740999625 -0.042617746238948234 24.10258915542911 0.015634770812310562 0.04115432502136824 28.889718331817683 0.03184067294737861 -0.04220277164354289 28.839806678119427 -6.824462422377542e-05 -0.03257698956051077 5.667490161076437 1.3881543189419328 13.869355519141836 -70.98456779579259 29.853595005786794 -7.2265173340437965 -7.14382211523683 -7.949684325625485 -89.54558491910315 -8.90126618852342 -5.125766686921383 2.8540106479761587 -0.48565409187055564 0.04249426422303863 -8.098495298485668 -0.03537093806876233 0.014207199213291858 44.58911953941683 0.02991675445574628 0.019516522243902656 44.57963628192253 12.46523247971111 0.02108806104554654 0.014870770566980293 0.02560116370225955 0.009086292283637899 -0.011467969660284549 -0.010410392218437231 0.01784405938165057 0.03796700266894523 11.100019179051912 -0.017903300261863157 0.033184751599469244 0.031957877569693274 0.013492621795816954 -0.030424598169794984 -0.022411331091808442 0.016557304986829786 0.005775188149413858 4.803854251092875 0.026923176437188966 -0.031010958667355194 -0.04405246060167753 -0.02448223298943484 0.019580816649544475 -0.027788096360880612 0.033815565324340685 0.025894863552280743 -5.593017482691227 -0.019665790810990763 0.027482914851074344 -6.7235748348294155 0.007894203719076074 0.01836555388477463 -6.7097155068959085 -0.02886907383906102 0.0454260211798092 0.030915068058054274 -0.04897243255409769 0.007308220716575825 8.077181715038913 3.482107767744352 -19.213583777764324 0.037896227078569336 10.358125973062384 0.015484924164187983 -5.6312256002023275 -15.665881696382762 3.1785794981709126 0.029768743331511967 0.04984740708001287 -0.004225286279656452 -0.028196480578068873 4.698381011613107 0.0030704140066052836 12.487482833866704 -8.19141494679884 6.871556202876534 0.03578450464320352 46.4077376005784 -0.027851322995895388 -4.331776751183974 -14.726764586820874 -3.858278964624183 -0.03780880784551455 0.036198196330584305 0.009170165505537509 -0.0261975055079049 -10.722195820318955 -0.014141354916327198 
0.018057525023241358 -0.040078188785320074 0.022400537698418016 -0.033632224762207744 0.0016696785643094117 0.0013283329672330486 -2.4604251441237643 0.1689964018024908 -0.8115613052777297 -0.9940097314547442 3.70818862220272 0.4030486251647745 -1.242108459155869 -2.0093363341708517 -1.4540896958353882 -0.020125955380196996 0.41862466633226736 -0.8362370927829498 -0.2574379633830726 13.25470369849551 1.3946976086570855 0.6343624923354929 0.7187023178549855 2.727686278354617 0.28540354529521006 -13.638768687576226 0.24101937360325507 -3.8484569820291115 1.4666296724251329 -15.690234816683345 73.2472173527652 15.247923731744837 -1.133593727299246 -2.4362636218125098 7.6019099741140534 42.95668672846899 22.84801962431403 -0.08921848093325023 -4.674339684341422 4.5538243183182185 -0.12228444903438232 -1.6408400042365203 0.011384055004106667 0.03880491484836335 -56.27878718188124 -0.026506359328737024 -0.04876701932022354 -56.2030303995893 -38.73905956432435 0.016796561544225173 -0.038441316934511756 0.007106559707057348 0.029842777985688844 0.03125536794661862 0.010324563444734812 0.02751967906205854 0.046233737582406335 -36.7223054258738 -0.02999588880324615 0.021202411339356776 0.025136524414115447 0.021954754320857205 -0.030754235459006334 -0.04978514421251116 0.008270766169488148 0.02188590132582248 -19.791360945718598 0.0006229794159385467 0.004926137927468991 -0.02277416599749443 0.037177339121768446 -0.04934107986082281 0.021028206943751387 0.010079225056943258 -0.0010604261021909239 24.015340450700503 -0.044920984377267936 0.034951643268365806 28.868583251032494 -0.018540782233679113 -0.04903293662691753 28.853787887081964 0.015968755435558323 -0.04619738123468023 5.841693179767334 1.3546134695158292 13.923688878896295 -70.89020876804582 30.467938400717166 -7.406378987393437 -5.938848684086161 -8.653047433980868 -90.48296303685662 -7.7633782873453 -4.360223051662913 1.6111807068587545 -0.4369665910556231 0.03980230910157119 -8.101673613890016 -0.049781876486171155 -0.032072337642213115 44.61321061876155 0.0031215099197641487 0.0236900647799846 44.59880211036786 12.437060528848894 0.03030680241649567 -0.03767843682128978 -0.029547556888430436 0.02016791413390588 0.03677086679018126 -0.011586010017291133 -0.014979910277585605 0.04523217288321472 11.0992366058848 -0.019080982833961556 0.023041171816124553 -0.016610587968942055 -0.01369553076408957 0.03267642898637458 0.039756247386283076 0.04745742801197648 -0.047525055493917445 4.767366451391258 0.03889792852960056 -0.004543062878835868 -0.023066599165075218 0.0007793351200127783 -0.009867775891079992 -0.022954311526445764 -0.027389207178408436 -0.031137012884408052 -5.6241456570950525 -0.028838929425496977 0.04453968431652512 -6.734616753846833 0.0499261890190898 0.0342953446155933 -6.679891764316684 0.036338756594258975 -0.025714730411481722 -0.00696854883578986 0.03877032992848222 0.027414895069387442 8.025217298570698 3.489382661197444 -19.240492759085544 -0.020816067903955175 10.360471284572299 -0.000180768005289364 -5.66866708653891 -15.668496992912324 3.159586251049708 -0.04542824278330379 0.028582888588817093 -0.018839576302421352 0.009281171449244533 4.662876780784312 -0.0013106946225376228 12.424359619130273 -8.25358496167878 6.927073570943858 0.030161728075403522 46.35389746246764 -0.015549036494662445 -4.35625545067302 -14.738993234179791 -3.8187316970706218 -0.008067858981537907 -0.04189967553983627 -0.015320267610680756 -0.03775334722637757 -10.752946105746293 0.006886761759293873 
-0.02483279968876343 0.03268385559560991 -0.027501075388662317 -0.037549295739924535 0.017065632939431346 0.006655432991780417 -2.5656136259734077 0.07498056211401177 -0.7608082141622917 -1.001118772349769 3.705969654550085 0.41495452113802667 -1.1836572061076607 -2.0178244842956166 -1.4670073688506287 -0.15146541086735837 0.39031857092274513 -0.9244102701598965 -0.3639478173196282 13.45841975898239 1.7116823913735257 0.5858448633257427 0.7696226633259264 3.5229937699983775 0.17333254894874767 -13.54316516347319 0.2571446474102097 -3.9340420561251817 1.4549415491324489 -15.739001499087916 73.19429873068424 15.083729445003925 -1.339204815769401 -1.6025231348806488 7.6280965836453865 43.31329408368192 22.795918236251566 -0.03840708110628939 -4.369399522227841 4.489651010456686 -0.13891974145103958 -1.5530282836600824 0.010084485501735158 -0.022147037623688064 -56.245576613967415 0.044576512770676195 -0.010080777158376906 -56.19618813701403 -38.7358758537398 -0.039655517671247344 0.03957082557168585 -0.013168872723590158 -0.02163067380417873 -0.03928222837312892 0.03427001168042951 0.008538243670585236 -0.015009655450501822 -36.74193742923572 0.009603443512572507 0.0031013667921832733 0.036332745862372506 -0.026222304264989924 -0.0009787355755436768 -0.008361092227163514 0.009807717643366382 0.03475437598874237 -19.740450452827503 -0.006351187361410206 0.0040410551832551446 0.04195606641701426 0.04570389351163155 0.0132374266817169 -0.039559730766578864 -0.0012855958702098606 0.04767803770318198 24.03949545940255 0.0006764909906119508 -0.022321343504429308 28.873307803078138 -0.016899599638461785 0.02563900007300959 28.85032075112917 0.009684248451292477 -0.013180306368112082 5.97673986036206 1.4322902411776044 13.956762471563405 -70.44011403484015 30.95522864318325 -7.769821056162314 -3.330728954077591 -10.002088733066797 -91.7036066464471 -6.382064778310084 -3.6663398683945907 0.36099056940015406 -0.4490222324684085 0.08273331975561969 -8.090627950014179 0.020150845825243208 -0.01889444518224298 44.560657042508 0.027336591078020712 -0.01212236463367563 44.60223635575029 12.485129773595439 -0.04408099207692378 -0.033817007797400815 -0.03386490069502542 0.029128140657342483 -0.007874515564959996 0.0013710859301462506 -0.01685437382863679 -0.0011559411469243496 11.126489983460022 0.028954252988826673 -0.024000173200689524 -0.03756610004348418 -0.004237530384405062 -0.01643313703027847 0.025924340979988136 0.04873565403286433 -0.0232475945779265 4.787988933323733 0.04153729246858873 -0.0205368920256301 0.002503344112564405 0.023929018892285023 0.01855678990840402 -0.03771519192885486 0.0049179777069026836 0.04124501524098098 -5.637618176893362 0.03992623116348949 0.00822903245831465 -6.7293751750980375 0.026899983513857268 0.029912896791453605 -6.735563052932363 -0.004155645156884646 0.04875777758950345 0.04144856811717867 0.03922078563135226 0.024281521097157012 8.052738973924969 3.4708827932219313 -19.1872675675509 0.042650457026084734 10.347507252988237 -0.012076468389164357 -5.571448240738273 -15.668169451152732 3.197680669501538 -0.04548289605507185 -0.02904034343565165 -0.0005739104499055189 -0.00904066600894627 4.684722506735465 0.038403598314699236 12.470714553809046 -8.287755967254018 6.926004919885574 -0.011145279310376803 46.38757102862821 0.015430207187802534 -4.283691585787099 -14.750843666516296 -3.8794685471207546 -0.0350945149790778 0.023268275900646 0.006687510001382538 0.029034349248830024 -10.737040753336775 -0.012600266878864447 
